<svg width="248" height="284" viewBox="0 0 248 284" fill="none" xmlns="http://www.w3.org/2000/svg">
<path d="M123.725 137.127C123.721 137.155 123.715 137.182 123.71 137.209C123.719 137.211 123.727 137.213 123.736 137.215C123.731 137.186 123.727 137.155 123.725 137.127Z" fill="#1A1F2B"/>
<path d="M228.563 280.887L228.674 234.19H245.029V280.887H228.563ZM80.4315 214.673L25.9623 214.198C26.0904 213.398 26.6089 212.256 27.3962 211.454C27.7489 211.095 28.2948 210.667 28.8932 210.667H28.9037L77.5783 210.841C78.7729 211.925 79.9444 213.117 80.4315 214.673ZM91.7981 214.679H82.3231C82.1551 213.058 81.0781 211.377 79.113 209.674C80.8598 210.652 82.7388 211.396 83.7382 211.763C84.2735 211.96 85.233 212.216 86.3436 212.51C88.1534 212.993 91.183 213.799 91.563 214.268C91.6511 214.375 91.7456 214.517 91.7981 214.679ZM112.747 217.629L112.715 217.633C106.776 218.36 100.043 219.18 95.0922 215.544C94.2419 214.919 93.4105 214.257 93.3937 213.648C93.3832 213.291 93.6561 212.882 94.202 212.433C96.5199 210.524 99.1085 211.003 101.848 211.509C102.862 211.696 103.912 211.891 104.956 211.96C106.295 212.048 107.672 212.011 109.008 211.973C110.053 211.944 111.13 211.916 112.18 211.948L112.747 217.629ZM176.601 210.978V214.679H172.49L174.417 213.287L176.601 210.978ZM81.2398 196.607C87.1561 192.217 102.713 190.42 111.46 189.737C118.51 189.187 121.466 190.837 125.203 192.926C127.025 193.945 129.091 195.097 131.898 196.16C138.81 198.773 144.588 196.584 150.177 194.463C156.122 192.208 162.27 189.876 169.979 193.189C172.607 194.316 177.411 198.127 177.224 201.387C177.216 201.513 177.109 201.669 176.993 201.834C176.834 202.063 176.655 202.324 176.617 202.662C176.554 203.22 176.58 203.785 176.607 204.331C176.632 204.868 176.657 205.376 176.599 205.861C175.723 213.405 166.901 215.511 158.39 216.575C148.749 217.78 138.757 217.887 129.093 217.99C124.655 218.036 120.064 218.087 115.552 218.244C114.907 218.313 114.659 217.438 114.42 216.376L114.34 216.027C113.906 214.251 113.698 211.857 114.044 211.427L164.132 196.16C164.132 196.16 164.018 195.066 162.286 195.366C159.597 195.832 156.737 196.678 153.958 197.43C153.191 197.635 152.438 197.839 151.699 198.034C147.227 199.219 142.53 200.671 138.119 202.233L137.393 202.496C135.803 203.079 134.304 203.632 132.6 203.273C130.145 202.756 126.631 201.465 122.864 200.224C114.061 197.323 108.846 196.521 105.126 196.246C102.596 196.059 99.9714 196.086 97.8425 196.321C97.8299 196.323 96.4527 196.537 96.1189 197.031C96.0265 197.169 95.9971 197.331 96.0412 197.484L96.1356 197.82L96.4821 197.785C105.661 196.844 113.874 199.447 122.568 202.208C124.733 202.895 126.971 203.604 129.203 204.247C129.4 204.446 129.501 204.623 129.476 204.73C129.392 205.097 128.247 205.439 127.699 205.603C127.5 205.662 127.315 205.719 127.166 205.769C120.74 208.02 112.522 210.549 105.974 210.167C104.702 210.094 103.509 209.88 102.359 209.674C99.4445 209.155 96.6941 208.662 93.5344 210.606C93.2153 210.803 92.9402 211.095 92.6715 211.377C92.3629 211.702 92.0458 212.04 91.7645 212.099C87.9833 211.44 75.9197 207.604 75.926 203.657C75.9281 201.988 79.4909 197.904 81.2398 196.607ZM106.4 176.773C108.573 178.574 111.747 180.726 115.31 181.589C115.153 182.364 112.581 187.881 112.352 187.923C109.782 188.358 107.171 188.66 104.084 188.944C94.2062 189.848 83.0117 190.877 77.0975 197.908C76.2472 198.918 75.6593 200 75.0904 201.045C74.7649 201.641 74.4521 202.217 74.0973 202.773C73.3856 197.724 76.8749 192.706 80.9353 190.594C84.305 188.839 88.4326 187.801 92.4258 186.798C95.9866 185.901 99.6712 184.976 102.852 183.539L102.984 183.479L106.4 176.773ZM195.198 125.774C195.87 126.23 197.344 130.513 197.209 133.358C197.182 133.96 197.046 135.001 196.422 135.218C193.518 136.458 190.436 137.699 187.459 138.9C179.697 142.028 171.671 145.264 164.659 149.278C163.441 149.977 162.398 150.811 162.398 150.811C166.431 164.531 165.967 178.996 160.315 189.426C156.968 189.907 153.657 191.188 150.452 192.427C144.764 194.625 139.391 196.701 133.641 194.875C131.43 194.173 129.284 192.954 127.208 191.774C124.466 190.216 121.64 188.608 118.493 188.053C120.586 185.425 123.515 179.309 123.515 179.309C127.072 171.889 127.271 170.304 127.13 169.878C127.072 169.695 126.912 169.63 126.815 169.59C125.291 169.011 120.578 187.638 114.254 187.638C114.256 187.606 114.256 187.575 114.258 187.543C118.323 182.859 121.046 169.502 120.393 163.97C120.343 163.544 120.28 163.011 119.883 162.704C119.646 162.517 119.329 162.45 118.947 162.498L118.586 162.545C118.586 162.545 119.795 169.374 117.084 176.565C116.872 177.132 116.358 178.843 115.659 179.895C114.596 179.863 109.961 177.22 108.634 176.24L108.518 176.154C107.341 175.286 105.163 173.682 105.281 172.284C106.15 170.332 106.942 168.312 107.777 166.175C110.754 158.568 113.832 150.701 120.538 146.368C121.365 145.833 125.854 143.355 127.282 142.797C127.319 144.256 127.832 145.335 128.81 146.007C131.653 147.959 137.21 145.677 138.296 145.201C142.387 143.404 144.856 140.634 147.414 137.464C163.657 132.388 179.731 128.455 195.198 125.774ZM202.993 123.003C202.989 123.03 196.968 125.109 196.51 125.157C196.405 125.155 196.403 125.155 196.3 124.951C196.17 124.701 195.956 124.284 195.313 124.162C195.032 124.107 194.751 124.084 194.467 124.084C193.655 124.084 192.847 124.277 192.057 124.466C192.04 124.468 192.026 124.472 192.011 124.477L192.015 124.475C193.89 123.643 200.648 120.905 203.025 121.082L202.993 123.003ZM216.409 153.349C210.549 157.031 210.069 157.082 203.504 154.707C197.635 152.587 189.221 149.381 182.45 146.16C181.415 145.667 180.35 145.161 179.422 144.485L186.861 141.163C190.749 142.732 195.257 144.497 199.79 145.749C200.149 145.849 200.543 145.969 200.957 146.095C202.88 146.679 205.273 147.405 206.989 146.933C210.277 146.024 221.026 136.58 222.242 135.505C222.367 135.394 222.596 135.197 222.88 134.953C225.095 133.045 225.416 132.656 225.546 132.413C226.199 131.21 225.221 130.483 225.221 130.483L224.946 130.7C223.1 132.155 221.303 133.725 219.565 135.243C217.858 136.733 216.092 138.275 214.293 139.7L213.491 140.343C211.74 141.755 208.097 144.693 206.917 144.97C205.559 145.289 204.39 145.031 203.035 144.73L202.563 144.628C199.617 143.994 196.55 142.864 193.583 141.772C192.091 141.222 190.552 140.657 189.057 140.166C189.133 140.137 189.208 140.105 189.275 140.072C192.62 138.375 196.909 136.811 200.692 135.43C201.918 134.983 203.107 134.55 204.253 134.111L226.363 122.776H226.394C227.654 122.776 232.05 125.965 233.461 127.288C234.815 128.554 237.442 131.575 237.503 132.511C237.538 133.028 237.196 133.979 236.99 134.548L236.957 134.642C234.757 140.775 221.379 150.225 216.409 153.349ZM179.33 201.249C179.341 201.192 179.347 201.14 179.349 201.093C179.836 191.904 181.789 180.352 183.422 172.406C183.901 170.078 188.284 150.487 188.284 150.487C190.384 151.319 192.257 152.116 194.293 153.005C197.69 154.483 201.203 156.013 204.759 157.187L205.425 157.409C206.89 157.907 207.942 158.268 209.762 158.18C213.476 158.006 217.56 154.921 221.162 152.198C222.517 151.176 223.808 150.202 224.986 149.45L228.015 201.606C219.491 203.968 192.032 203.13 179.33 201.249ZM164.902 151.457L177.405 144.987C177.493 144.953 177.575 144.974 177.858 145.066C178.245 145.201 182.129 147.451 182.687 147.838L182.828 147.932C183 148.048 183.271 148.226 183.34 148.375C181.119 150.714 179.118 153.328 177.18 155.858C175.209 158.432 173.172 161.092 170.922 163.435L170.539 163.842C169.803 164.636 169.055 165.44 168.306 165.436C167.936 165.427 167.565 165.207 167.17 164.762C166.987 162.801 165.631 154.344 164.902 151.457ZM167.153 167.01C168.587 167.378 169.735 167.279 171.043 166.07L185.112 149.263C185.746 149.486 186.231 149.683 186.865 149.925C187.1 150.015 182.851 166.867 181.572 173.517L181.274 175.064C179.794 182.725 178.675 190.552 177.946 198.339C177.89 198.215 177.827 198.032 177.745 197.77C177.638 197.423 177.516 197.031 177.304 196.714C174.216 192.103 167.758 189.838 162.494 189.573C166.019 181.537 167.548 174.144 167.153 167.01ZM201.858 210.646L201.742 214.679H201.148C201.32 214.131 201.734 211.093 201.858 210.646ZM199.414 214.679H178.406L178.713 203.539C178.734 203.336 178.828 202.998 178.931 202.651C200.155 205.206 223.121 204.121 226.558 203.934V214.681L203.69 214.713C203.235 211.213 202.96 205.62 202.158 206.183C201.532 206.183 199.536 214.679 199.414 214.679ZM204.291 124.559C204.883 124.367 205.605 124.128 206.428 123.855C212.414 121.873 223.516 118.195 227.362 118.195C227.392 118.195 227.419 118.197 227.446 118.197C230.492 118.241 233.402 119.625 235.433 121.995C237.301 124.179 238.166 126.866 237.889 129.602C237.853 129.57 237.811 129.522 237.753 129.457C237.702 129.398 237.648 129.335 237.587 129.274C237.144 128.816 236.705 128.352 236.266 127.89C233.604 125.083 230.849 122.18 226.965 120.658L226.797 120.593L198.379 134.414C198.379 134.397 198.377 134.378 198.375 134.359C198.326 133.947 198.956 132.236 197.621 126.944C198.043 126.517 202.116 125.241 203.455 124.823L204.291 124.559ZM212.819 120.049C211.589 120.454 204.864 122.388 204.822 122.335V118.029C207.881 118.766 210.058 117.559 212.487 116.091C212.221 117.574 212.33 118.879 212.819 120.049ZM204.037 102.239C204.308 102.398 204.562 102.571 204.814 102.741C205.36 103.104 205.92 103.482 206.615 103.757C207.071 103.939 207.677 104.068 208.32 104.202C209.08 104.361 209.943 104.542 210.272 104.788C210.566 105.006 210.871 105.59 211.194 106.207C211.933 107.628 212.922 109.522 215.049 109.57C213.623 112.696 211.44 115.663 207.585 116.303C204.784 116.769 202.235 115.321 201.597 114.554C200.556 113.303 201.232 111.065 201.776 109.266C201.887 108.905 201.99 108.563 202.072 108.252C202.466 106.761 203.554 103.194 204.037 102.239ZM217.169 108.535C216.646 107.865 215.897 107.689 215.238 107.534C214.828 107.437 214.444 107.347 214.121 107.156C213.461 106.763 212.972 105.869 212.498 105.004C211.971 104.038 211.471 103.127 210.69 102.785C210.249 102.589 209.689 102.518 209.095 102.443C208.607 102.382 208.106 102.319 207.69 102.184C205.299 101.418 204.205 99.1652 203.716 97.5129C204.049 97.6431 204.375 97.7942 204.711 97.9496C205.538 98.3338 206.395 98.7285 207.459 98.8566C208.649 98.9994 209.789 98.9847 210.89 98.9658C213.264 98.9322 215.502 98.9028 217.822 100.488C219.64 101.733 219.791 103.809 219.596 105.331C219.225 108.246 217.289 111.447 215.101 113.055C216.621 110.975 217.642 109.434 217.169 108.535ZM24.7908 232.403C20.1824 231.639 18.5217 227.942 18.5217 224.606C18.5217 220.119 22.8173 216.709 28.4313 216.709C28.4313 216.709 68.3153 216.882 93.568 216.812C93.9963 216.812 94.16 216.978 94.9578 217.375C96.9419 218.357 99.5452 219.565 102.944 219.819C104.624 219.945 106.711 219.875 108.424 219.676C110.303 219.46 112.079 219.252 113.305 219.376C122.999 220.346 133.288 220.087 142.075 219.707C151.392 219.304 160.187 218.318 168.14 216.785L245.029 216.791V232.409L24.7908 232.403ZM196.315 280.887H178.394V234.19H198.818L196.315 280.887ZM200.61 234.209L203.017 234.232L205.765 280.677L205.779 280.887H198.154L200.61 234.209ZM176.269 280.887H59.7893V234.204L176.279 234.19L176.269 280.887ZM57.6688 280.887H53.3396V234.19H57.6688V280.887ZM226.558 280.887H207.631L204.849 234.19H226.558V280.887ZM2.41652 123.723C2.41652 56.8353 56.8332 2.41651 123.723 2.41651C190.611 2.41651 245.029 56.8353 245.029 123.723V214.679H228.674V203.495C229.409 203.218 229.81 202.622 229.81 202.622L226.751 148.331L226.961 147.848L227.068 147.768C231.889 144.14 239.176 138.657 239.325 132.165C239.333 131.831 239.197 131.493 239.088 131.222C239.065 131.164 239.035 131.092 239.012 131.031C239.029 131.023 239.046 131.017 239.063 131.01C239.327 130.907 239.73 130.752 239.886 130.313C241.227 126.517 237.177 120.225 233.925 118.285C228.907 115.296 224.671 116.547 220.19 117.874C218.33 118.426 216.334 119.024 214.398 119.551C213.52 116.963 214.58 115.844 216.182 114.607C216.842 114.099 217.589 113.522 218.25 112.755C220.761 109.841 223.434 102.967 219.819 99.646C217.243 97.2778 214.221 97.219 211.299 97.1602C209.596 97.1266 207.99 97.0951 206.455 96.6416C205.973 96.4968 204.992 95.9152 204.207 95.4449C202.872 94.6513 202.525 94.4707 202.24 94.5316C201.96 94.5883 201.738 94.7479 201.597 94.9914C201.169 95.7409 201.604 97.1644 202.219 98.9448C202.408 99.499 202.67 100.255 202.657 100.435C202.485 101.596 201.853 103.295 201.245 104.937C200.726 106.331 200.191 107.771 199.911 108.947C199.836 109.257 199.752 109.568 199.668 109.881C199.164 111.754 198.643 113.689 200.039 115.499C200.51 116.11 201.2 116.465 201.807 116.78C202.422 117.097 202.954 117.372 203.079 117.79C203.166 118.065 203.084 118.449 202.84 118.93C195.994 120.954 189.204 122.982 187.476 125.323C172.645 128.304 158.595 131.961 145.713 136.194L145.589 136.234L142.986 139.698C142.963 139.612 142.952 139.507 142.94 139.36L142.923 139.202C142.732 137.47 142.423 132.797 142.629 131.586C142.732 130.989 143.236 130.248 143.723 129.532C144.132 128.932 144.556 128.308 144.781 127.716C146.259 123.843 145.129 116.431 140.601 114.523C136.792 112.917 133.975 113.671 131.252 114.397C129.419 114.886 127.691 115.346 125.68 115.117C125.386 115.084 124.999 114.951 124.626 114.823C123.788 114.538 122.923 114.242 122.325 114.699C121.936 114.997 121.775 115.535 121.829 116.343C121.936 117.907 122.593 118.743 123.288 119.627C123.547 119.954 123.813 120.292 124.065 120.687C124.128 121.749 124.019 123.358 123.901 125.06C123.593 129.534 123.244 134.605 125.138 136.542C126.597 138.037 131.05 137.93 132.432 137.878C133.322 137.808 133.393 137.267 133.387 137.113C133.4 136.956 133.234 136.729 132.875 136.647C131.565 136.442 128.046 137.496 126.226 135.873C123.44 133.387 125.086 126.723 125.623 123.332C125.747 122.543 125.833 121.991 125.867 121.598C128.256 122.297 130.75 122.35 133.169 122.402C134.254 122.425 135.377 122.449 136.471 122.533C136.668 122.99 136.794 123.492 136.927 124.017C137.111 124.752 137.302 125.51 137.708 126.188C137.766 126.286 137.834 126.419 137.913 126.574C138.335 127.397 139.045 128.779 140.296 129.148C140.668 129.257 141.052 129.27 141.449 129.182C140.376 132.186 140.783 135.428 141.176 138.575C141.289 139.469 141.401 140.357 141.474 141.231C138.415 143.431 132.765 145.948 129.893 144.575C129.297 144.292 128.963 143.628 129.001 142.801C129.037 141.974 129.499 140.928 130.422 140.584L130.641 140.502L130.683 140.273C130.733 140.015 130.62 139.851 130.548 139.776C130.32 139.536 129.965 139.591 129.736 139.624C127.368 139.969 118.26 145.448 116.32 147.143C111.792 151.1 106.843 162.994 104.926 167.924C104.832 168.163 104.695 168.49 104.54 168.864C103.828 170.577 103.234 172.053 103.196 172.767C103.154 173.542 103.612 174.002 104.013 174.405C104.429 174.822 104.756 175.152 104.674 175.816C104.599 176.395 102.474 181.245 102.125 181.646C101.573 182.211 99.6985 182.773 98.4577 183.147C98.0693 183.262 97.7166 183.367 97.4415 183.462C95.7451 184.031 93.8283 184.53 91.8002 185.057C85.4702 186.703 78.2942 188.568 74.8804 193.491C73.7782 195.078 71.4037 200.088 72.0671 203.052C72.2623 203.928 72.7011 204.568 73.373 204.956C74.7209 205.737 74.8174 205.865 75.1764 206.34C75.3696 206.592 75.632 206.938 76.1443 207.49C76.6839 208.072 77.404 208.622 78.1934 209.124L28.2381 208.903C26.5061 209.12 24.3184 211.895 24.1273 214.114C24.058 214.923 24.2596 215.576 24.7047 216.035C21.1524 216.361 18.2047 218.727 17.0793 222.288C15.8259 226.247 17.1129 230.383 20.4784 232.644C22.6157 234.081 24.7467 234.19 24.7467 234.19H51.2233V280.887H2.41652V123.723ZM123.723 0C55.5021 0 0 55.5021 0 123.723V283.303H247.446V123.723C247.446 55.5021 191.944 0 123.723 0Z" fill="#1A1F2B"/>
<path d="M26.0543 106.709C25.7877 106.279 25.3657 106.018 24.7862 105.928C24.1942 105.838 23.6945 105.968 23.2872 106.321C22.8757 106.673 22.6196 107.188 22.5167 107.857L22.1199 110.465L25.8906 111.04L26.2979 108.366C26.4007 107.694 26.3189 107.141 26.0543 106.709ZM20.5012 110.217L20.877 107.767C20.9757 107.118 20.9064 106.589 20.667 106.18C20.4256 105.771 20.0288 105.523 19.4724 105.439C18.9287 105.353 18.4752 105.47 18.112 105.789C17.7508 106.106 17.5199 106.589 17.4212 107.24L17.0454 109.69L20.5012 110.217ZM23.2641 104.364C23.9023 103.999 24.5784 103.868 25.2985 103.98C25.9116 104.074 26.4406 104.318 26.8836 104.712C27.3266 105.105 27.6457 105.624 27.8368 106.27C28.0278 106.917 28.0635 107.639 27.9397 108.437L27.2027 113.268L15.1265 111.422L15.8298 106.818C15.9558 105.995 16.2035 105.311 16.5709 104.763C16.9383 104.215 17.3813 103.824 17.8957 103.595C18.4101 103.367 18.958 103.295 19.5375 103.383C20.2345 103.49 20.7846 103.766 21.1919 104.206C21.5971 104.649 21.8637 105.197 21.9876 105.857C22.2018 105.227 22.628 104.729 23.2641 104.364Z" fill="#1A1F2B"/>
<path d="M26.7598 94.9793L20.7594 95.3824L25.6974 98.8256L26.7598 94.9793ZM28.4856 94.8722L27.1251 99.8018L29.296 101.316L28.7396 103.331L18.112 95.8548L18.7292 93.6188L31.6873 92.6572L31.1246 94.6875L28.4856 94.8722Z" fill="#1A1F2B"/>
<path d="M27.0118 86.8951L27.8474 84.8439C28.1309 84.1489 28.1728 83.5548 27.9692 83.0614C27.7634 82.5659 27.3708 82.2006 26.7851 81.9613C26.1972 81.7219 25.6682 81.7093 25.1979 81.9214C24.7234 82.1334 24.3434 82.5932 24.0557 83.2987L23.2202 85.3499L27.0118 86.8951ZM34.6582 85.3247L29.0693 86.0826L28.4941 87.4997L33.0185 89.3452L32.2627 91.2011L20.9485 86.5885L22.542 82.6814C22.8968 81.8122 23.3482 81.1404 23.8983 80.6617C24.4463 80.183 25.0383 79.8996 25.6682 79.8072C26.3001 79.7169 26.9321 79.8009 27.5619 80.057C28.2988 80.3594 28.8825 80.8464 29.3087 81.5183C29.737 82.1943 29.8755 83.0194 29.7307 83.9978L35.5589 83.1097L34.6582 85.3247Z" fill="#1A1F2B"/>
<path d="M28.1252 74.4272L31.2913 76.1152L33.2753 72.3928L34.7176 73.1612L32.7315 76.8857L36.0361 78.6471L38.27 74.4608L39.7123 75.2292L36.5358 81.1854L25.7402 75.4265L28.9167 69.4703L30.3591 70.2408L28.1252 74.4272Z" fill="#1A1F2B"/>
<path d="M31.7951 64.8135L38.2343 69.1909C39.0006 69.7116 39.7123 69.9026 40.3757 69.7641C41.035 69.6255 41.6102 69.1993 42.0973 68.4813C42.5928 67.7528 42.7818 67.0578 42.6684 66.3923C42.5529 65.7268 42.1141 65.1326 41.3478 64.6119L34.9087 60.2324L36.0361 58.5759L42.4458 62.9344C43.2709 63.4971 43.8441 64.15 44.1737 64.8975C44.5012 65.6449 44.602 66.4154 44.4739 67.2069C44.348 67.9984 44.0351 68.7584 43.5418 69.4848C43.0463 70.2092 42.4563 70.776 41.7698 71.1812C41.0854 71.5864 40.3359 71.7691 39.5275 71.7292C38.7192 71.6872 37.9025 71.3891 37.0795 70.8285L30.6698 66.47L31.7951 64.8135Z" fill="#1A1F2B"/>
<path d="M54.1658 56.0814L52.8431 57.5868L42.0118 56.0898L48.8624 62.1132L47.5398 63.6186L38.3524 55.5397L39.6751 54.0344L50.4937 55.5188L43.6557 49.5079L44.9784 48.0026L54.1658 56.0814Z" fill="#1A1F2B"/>
<path d="M60.3064 50.035C59.6178 50.2303 58.9586 50.245 58.3371 50.0749C57.7115 49.9049 57.1761 49.548 56.7289 49.0042L58.3875 47.6437C58.757 48.0216 59.1937 48.2253 59.6934 48.2526C60.1952 48.2799 60.7032 48.0825 61.2218 47.6584C61.753 47.2196 62.0658 46.7493 62.1519 46.2455C62.238 45.7416 62.1141 45.286 61.7803 44.8787C61.5199 44.5638 61.2155 44.3811 60.867 44.3328C60.5164 44.2866 60.1595 44.3223 59.7942 44.4399C59.4268 44.5596 58.9502 44.7548 58.3539 45.0299C57.6065 45.3721 56.9703 45.6177 56.4476 45.7668C55.9248 45.9158 55.3831 45.9264 54.8226 45.7941C54.2599 45.666 53.7371 45.307 53.2543 44.717C52.8071 44.1733 52.553 43.5875 52.4879 42.9577C52.425 42.3257 52.5509 41.7001 52.8595 41.0807C53.1724 40.4614 53.6469 39.8903 54.2914 39.3612C55.2047 38.6117 56.1431 38.2233 57.1026 38.2002C58.0621 38.1792 58.8998 38.5382 59.6178 39.2836L57.9046 40.6902C57.596 40.369 57.1929 40.2073 56.6911 40.2073C56.1935 40.2094 55.698 40.411 55.2089 40.812C54.7659 41.1773 54.495 41.5888 54.4006 42.0444C54.3082 42.5021 54.4342 42.943 54.7848 43.3692C55.022 43.6589 55.3055 43.8248 55.633 43.8646C55.9647 43.9045 56.309 43.8667 56.6701 43.7534C57.0291 43.6379 57.4973 43.451 58.0747 43.1907C58.841 42.8506 59.4897 42.605 60.0251 42.4538C60.5605 42.3005 61.1147 42.2921 61.6837 42.4223C62.2548 42.5525 62.7838 42.9157 63.2751 43.514C63.6698 43.9948 63.9134 44.5533 64.0036 45.1894C64.096 45.8277 63.9994 46.4785 63.7181 47.1419C63.4368 47.8054 62.9623 48.4142 62.2904 48.9622C61.6585 49.4829 60.9951 49.8419 60.3064 50.035Z" fill="#1A1F2B"/>
<path d="M67.0109 30.4262L67.9137 31.7866L65.2033 33.5838L71.0483 42.4058L69.3771 43.5123L63.5321 34.6902L60.8069 36.4979L59.9042 35.1332L67.0109 30.4262Z" fill="#1A1F2B"/>
<path d="M74.0637 33.0383L76.0309 32.0158C76.6944 31.6715 77.1101 31.2432 77.2738 30.733C77.4397 30.225 77.3767 29.6896 77.0828 29.1311C76.7931 28.5684 76.3984 28.2157 75.9008 28.0709C75.4032 27.926 74.8153 28.031 74.1393 28.3816L72.1763 29.4041L74.0637 33.0383ZM80.9101 36.7901L76.159 33.7521L74.8027 34.4575L77.0576 38.793L75.2793 39.7167L69.6443 28.8792L73.3877 26.9329C74.217 26.5005 74.998 26.2779 75.7265 26.2695C76.455 26.259 77.0891 26.427 77.6286 26.7671C78.1682 27.1072 78.5965 27.5775 78.9093 28.1821C79.2767 28.8876 79.4048 29.6371 79.2935 30.4286C79.1823 31.218 78.7561 31.9402 78.0129 32.589L83.0306 35.6878L80.9101 36.7901Z" fill="#1A1F2B"/>
<path d="M82.9129 24.2816L84.2335 27.6155L88.1554 26.0619L88.7558 27.582L84.834 29.1356L86.2133 32.6165L90.6265 30.8698L91.229 32.3877L84.9536 34.8735L80.446 23.5006L86.7214 21.0127L87.3261 22.5327L82.9129 24.2816Z" fill="#1A1F2B"/>
<path d="M97.5866 17.7287L98.038 19.2991L94.914 20.1977L97.8344 30.3676L95.9091 30.9198L92.9887 20.7499L89.8437 21.6527L89.3944 20.0822L97.5866 17.7287Z" fill="#1A1F2B"/>
<path d="M101.259 19.7728C101.654 18.7461 102.281 17.8916 103.14 17.2135C103.997 16.5332 104.985 16.1029 106.109 15.9202C107.392 15.7102 108.584 15.8404 109.688 16.3086C110.791 16.7747 111.662 17.5494 112.302 18.6327L109.926 19.0211C109.51 18.4333 109 18.0323 108.391 17.8076C107.784 17.5872 107.119 17.5368 106.39 17.6544C105.59 17.7845 104.91 18.0785 104.343 18.5404C103.776 19.0001 103.373 19.5943 103.13 20.3228C102.884 21.0493 102.836 21.8597 102.98 22.7519C103.127 23.6421 103.43 24.3937 103.892 25.0068C104.356 25.6198 104.927 26.0586 105.611 26.3211C106.293 26.5835 107.037 26.6486 107.834 26.5205C108.563 26.4008 109.178 26.1405 109.684 25.7374C110.188 25.3343 110.545 24.7905 110.753 24.104L113.129 23.7156C112.867 24.9459 112.285 25.9537 111.387 26.741C110.488 27.5283 109.397 28.0301 108.114 28.2379C106.98 28.4227 105.903 28.3282 104.881 27.9524C103.856 27.5808 102.995 26.9698 102.292 26.1216C101.591 25.2755 101.143 24.2615 100.952 23.0816C100.759 21.9016 100.862 20.7973 101.259 19.7728Z" fill="#1A1F2B"/>
<path d="M125.073 14.5672L125.459 26.7778L123.456 26.8429L123.286 21.5018L117.542 21.6844L117.712 27.0256L115.709 27.0885L115.321 14.8758L117.326 14.8128L117.491 20.0489L123.236 19.8663L123.07 14.6302L125.073 14.5672Z" fill="#1A1F2B"/>
<path d="M127.855 26.9672L128.493 14.7649L130.493 14.8695L129.855 27.0718L127.855 26.9672Z" fill="#1A1F2B"/>
<path d="M142.244 28.5193L140.26 28.24L135.553 18.3703L134.289 27.4065L132.305 27.1273L133.999 15.0111L135.985 15.2883L140.694 25.1433L141.954 16.126L143.94 16.4031L142.244 28.5193Z" fill="#1A1F2B"/>
<path d="M155.333 22.9406C155.192 22.2709 154.892 21.7082 154.432 21.2589C153.975 20.8075 153.389 20.4842 152.677 20.2869C151.898 20.0706 151.157 20.0517 150.45 20.2323C149.742 20.4128 149.127 20.7781 148.604 21.324C148.081 21.872 147.701 22.569 147.466 23.4172C147.231 24.2633 147.193 25.059 147.357 25.8043C147.521 26.5496 147.859 27.1816 148.373 27.7023C148.885 28.2208 149.53 28.5882 150.309 28.8045C151.359 29.0984 152.293 29.0396 153.11 28.6365C153.928 28.2313 154.552 27.5469 154.978 26.5811L150.559 25.3529L150.987 23.8119L157.472 25.6154L157.052 27.1228C156.675 28.0025 156.116 28.7541 155.377 29.3755C154.64 29.997 153.786 30.4211 152.818 30.6436C151.85 30.8662 150.851 30.8368 149.824 30.5492C148.717 30.2426 147.777 29.7052 147.006 28.9347C146.236 28.1683 145.709 27.253 145.425 26.1885C145.144 25.1241 145.163 24.0176 145.484 22.865C145.805 21.7145 146.362 20.755 147.151 19.9908C147.941 19.2245 148.869 18.7122 149.931 18.454C150.995 18.1979 152.072 18.221 153.168 18.5254C154.42 18.8739 155.451 19.4911 156.255 20.3792C157.061 21.2652 157.527 22.336 157.653 23.5873L155.333 22.9406Z" fill="#1A1F2B"/>
</svg>
